<?xml version="1.0" encoding="UTF-8" standalone="no"?>
<svg
   height="48px"
   viewBox="0 -960 960 960"
   width="48px"
   fill="#e3e3e3"
   version="1.1"
   id="svg1"
   sodipodi:docname="qr-customize-icon.svg"
   inkscape:export-filename="qr-customize-icon.png"
   inkscape:export-xdpi="256"
   inkscape:export-ydpi="256"
   inkscape:version="1.4.2 (ebf0e940d0, 2025-05-08)"
   xmlns:inkscape="http://www.inkscape.org/namespaces/inkscape"
   xmlns:sodipodi="http://sodipodi.sourceforge.net/DTD/sodipodi-0.dtd"
   xmlns="http://www.w3.org/2000/svg"
   xmlns:svg="http://www.w3.org/2000/svg">
  <defs
     id="defs1" />
  <sodipodi:namedview
     id="namedview1"
     pagecolor="#505050"
     bordercolor="#eeeeee"
     borderopacity="1"
     inkscape:showpageshadow="0"
     inkscape:pageopacity="0"
     inkscape:pagecheckerboard="0"
     inkscape:deskcolor="#505050"
     inkscape:zoom="15.229167"
     inkscape:cx="23.967168"
     inkscape:cy="24"
     inkscape:window-width="2336"
     inkscape:window-height="964"
     inkscape:window-x="32"
     inkscape:window-y="32"
     inkscape:window-maximized="1"
     inkscape:current-layer="svg1" />
  <path
     d="M120-510v-330h330v330H120Zm60-60h210v-210H180v210Zm-60 450v-330h330v330H120Zm60-60h210v-210H180v210Zm330-330v-330h330v330H510Zm60-60h210v-210H570v210Zm188 450v-82h82v82h-82ZM510-367v-83h82v83h-82Zm82 82v-82h83v82h-83Zm-82 83v-83h82v83h-82Zm82 82v-82h83v82h-83Zm83-82v-83h83v83h-83Zm0-165v-83h83v83h-83Zm83 82v-82h82v82h-82Z"
     id="path1" />
</svg>
